<svg version="1.1" id="Layer_1" xmlns="http://www.w3.org/2000/svg" xmlns:xlink="http://www.w3.org/1999/xlink" x="0px" y="0px"
	 width="100%" viewBox="0 0 1240 1087" enable-background="new 0 0 1240 1087" xml:space="preserve">
<path fill="#000000" opacity="1.000000" stroke="none" 
	d="
M1241.000000,611.000000 
	C1241.000000,748.692505 1241.000000,886.385010 1240.531372,1024.538818 
	C1168.425415,1025.000000 1096.788208,1025.000000 1025.000000,1025.000000 
	C1025.000000,1046.426880 1025.000000,1067.213379 1025.000000,1088.000000 
	C841.307495,1088.000000 657.614990,1088.000000 473.172668,1087.699585 
	C474.255219,1086.120483 476.003784,1084.695923 477.933472,1083.586426 
	C491.866272,1075.574951 505.875427,1067.695923 519.784546,1059.643921 
	C542.181519,1046.678467 564.483948,1033.549561 586.894470,1020.607605 
	C605.403503,1009.918701 624.058533,999.482239 642.563416,988.786194 
	C667.479431,974.384399 692.290222,959.800659 717.191956,945.373901 
	C731.097839,937.317566 745.116760,929.456421 759.048035,921.443420 
	C775.484131,911.989807 791.881287,902.468567 808.293518,892.973633 
	C821.933289,885.082642 835.580139,877.203918 849.206421,869.289795 
	C863.107849,861.215820 876.973328,853.079834 890.881714,845.017822 
	C905.336670,836.638977 919.868958,828.392334 934.262390,819.909729 
	C937.440857,818.036560 939.228821,815.312073 939.130737,810.979492 
	C938.791382,795.988525 939.000000,780.985229 939.000000,765.986572 
	C939.000000,762.051880 939.000000,758.117126 939.000000,754.295776 
	C918.674011,754.295776 898.936035,754.295776 879.000000,754.295776 
	C879.000000,761.570129 879.114502,768.553345 878.909119,775.527100 
	C878.864868,777.030151 878.080322,779.170593 876.934021,779.876648 
	C868.580444,785.022400 860.078613,789.931213 851.564270,794.811340 
	C835.391846,804.080872 819.139832,813.211792 802.995361,822.529419 
	C786.843628,831.851135 770.823364,841.400696 754.671021,850.721252 
	C738.525330,860.037964 722.261169,869.149109 706.096924,878.434021 
	C689.514893,887.958740 672.977417,897.561340 656.446045,907.173950 
	C642.684937,915.175842 628.975891,923.267334 615.204651,931.251648 
	C613.103149,932.470093 610.789795,933.323120 608.232544,934.502808 
	C607.431702,926.130432 606.611084,918.655457 606.022827,911.162231 
	C604.943542,897.413330 603.987549,883.654663 603.005554,869.898315 
	C601.988037,855.644348 601.013855,841.387451 599.996277,827.133484 
	C599.014282,813.377014 597.978027,799.624390 597.007935,785.867065 
	C595.979370,771.280518 594.936462,756.694580 594.020020,742.100830 
	C593.256226,729.937012 592.683838,717.761414 591.991333,705.593018 
	C591.701782,700.505249 591.385071,695.417480 590.969971,690.338806 
	C589.675049,674.495605 588.311646,658.658020 587.006348,642.815674 
	C586.305908,634.315063 585.578918,625.815125 585.024902,617.304382 
	C583.956177,600.887024 583.035095,584.460083 581.985046,568.041504 
	C581.504883,560.534180 580.863708,553.037109 580.256836,545.023315 
	C597.290283,545.023315 614.505676,545.023315 631.744629,545.023315 
	C631.744629,531.089233 631.744629,517.684631 631.744629,504.249512 
	C526.090759,504.249512 420.692444,504.249512 315.252625,504.249512 
	C315.252625,517.905151 315.252625,531.309753 315.252625,545.063965 
	C330.272522,545.063965 345.044312,545.063965 360.082367,545.063965 
	C359.675201,547.331848 359.179352,549.199280 359.025604,551.094360 
	C357.977631,564.011841 356.967255,576.932678 356.011505,589.857361 
	C354.970032,603.942566 353.943604,618.029236 353.018036,632.122375 
	C352.262939,643.619690 351.685364,655.128418 350.989410,666.629761 
	C350.711761,671.218079 350.342590,675.801086 349.989258,680.384583 
	C348.665314,697.558350 347.310638,714.729797 346.011719,731.905518 
	C345.602417,737.317993 345.440216,742.750305 344.976837,748.157471 
	C343.704651,763.002625 342.265076,777.833679 341.020508,792.681091 
	C339.924072,805.761230 338.976990,818.854065 338.008026,831.944580 
	C336.650635,850.282593 335.274139,868.619446 334.022003,886.964722 
	C333.237427,898.459778 332.733612,909.973816 331.963654,921.469971 
	C331.685638,925.621643 330.998993,929.745972 330.428925,934.460510 
	C318.263000,927.489258 306.414337,920.770813 294.634003,913.934692 
	C270.021057,899.651917 245.450211,885.296692 220.850830,870.990540 
	C197.361267,857.329956 173.890915,843.635742 150.351242,830.061890 
	C123.061852,814.325745 95.792374,798.550537 68.303650,783.168701 
	C63.047451,780.227478 60.807602,777.325684 60.822346,770.946289 
	C61.070774,663.456726 61.000000,555.966431 61.000000,448.476288 
	C61.000000,403.813721 61.032021,359.151062 60.931549,314.488708 
	C60.924477,311.344055 61.672943,309.586884 64.608070,307.945007 
	C84.661041,296.727722 104.603340,285.310486 124.505783,273.826782 
	C144.554413,262.258759 164.482880,250.482498 184.524628,238.902405 
	C203.173859,228.126907 221.944061,217.560669 240.586838,206.774124 
	C265.496521,192.361542 290.302643,177.770050 315.214783,163.361816 
	C331.350739,154.029404 347.645355,144.971313 363.780212,135.637100 
	C381.591370,125.333145 399.285248,114.826668 417.059937,104.459366 
	C433.721497,94.741287 450.381775,85.018730 467.174377,75.531326 
	C468.667542,74.687737 471.521149,74.871994 473.085480,75.750107 
	C487.235840,83.693253 501.225250,91.922531 515.290344,100.018402 
	C529.503906,108.199760 543.785095,116.264244 557.973389,124.488907 
	C577.997498,136.096527 597.922852,147.874756 617.966187,159.448868 
	C636.475769,170.137283 655.129272,180.576508 673.639771,191.263275 
	C698.419800,205.569595 723.095215,220.056946 747.868103,234.375641 
	C768.042480,246.036346 788.324829,257.510223 808.503235,269.163879 
	C830.914368,282.106934 853.243103,295.192871 875.665344,308.116638 
	C878.049988,309.491119 879.188843,310.895264 879.084595,313.833740 
	C878.826721,321.105194 879.000000,328.391907 879.000000,335.769104 
	C899.194763,335.769104 918.932007,335.769104 939.000000,335.769104 
	C939.000000,316.745758 938.743225,297.945801 939.150208,279.160217 
	C939.279053,273.211945 936.552612,270.083710 932.027588,267.505096 
	C913.456360,256.922333 894.846680,246.406082 876.335327,235.719559 
	C851.554993,221.413971 826.880798,206.924667 802.108032,192.605942 
	C781.933655,180.945129 761.645020,169.481964 741.473389,157.816513 
	C719.207336,144.939835 697.059631,131.858200 674.780945,119.003563 
	C653.763367,106.876534 632.597046,95.007210 611.578857,82.881134 
	C586.932617,68.661926 562.395508,54.253651 537.773743,39.991882 
	C518.025024,28.552723 498.198914,17.247072 478.473145,5.768764 
	C476.419250,4.573616 474.813629,2.608077 473.000000,0.999996 
	C728.921082,1.000000 984.842102,1.000000 1241.000000,1.000000 
	C1241.000000,201.692444 1241.000000,402.384979 1240.696411,603.840942 
	C1223.392944,596.378296 1206.392944,588.152222 1189.551270,580.002747 
	C1185.232788,588.507690 1181.117554,596.464661 1177.137573,604.488647 
	C1172.433594,613.972961 1165.365112,621.685974 1157.119751,627.821533 
	C1141.462036,639.472961 1123.593384,642.313904 1104.619019,637.982483 
	C1087.208496,634.008118 1072.861816,624.943726 1062.331787,610.596375 
	C1050.769653,594.842529 1045.358032,576.556946 1044.155640,557.316162 
	C1042.813599,535.841125 1044.563110,514.533508 1053.039795,494.360596 
	C1059.507812,478.967712 1068.855835,465.777802 1083.457031,456.973145 
	C1098.215454,448.073700 1113.962402,444.126770 1131.291748,446.935516 
	C1149.381836,449.867554 1163.754761,458.278748 1171.796387,475.010437 
	C1175.677612,483.085724 1177.477417,492.161377 1180.237549,500.840424 
	C1198.059937,495.975647 1216.294922,490.856689 1234.627686,486.116577 
	C1238.185181,485.196747 1238.459106,484.240906 1237.096680,481.141449 
	C1232.661133,471.050232 1229.205444,460.469238 1224.106445,450.740509 
	C1211.751099,427.167419 1192.523926,411.002167 1167.519531,402.076019 
	C1145.687256,394.282349 1123.079224,393.684479 1100.213867,395.941528 
	C1082.024536,397.736969 1064.928345,402.576538 1048.874512,411.500824 
	C1029.651611,422.186890 1015.210266,437.496338 1004.344971,456.294891 
	C990.106689,480.929413 984.536743,508.062103 983.188843,536.075745 
	C982.686279,546.519653 984.327576,557.066895 984.992432,567.566895 
	C986.012024,583.665710 990.331177,599.003784 996.057495,613.955566 
	C1004.586670,636.226013 1017.856323,655.313416 1037.128418,669.422791 
	C1060.044312,686.199768 1086.368530,694.132629 1114.606567,694.796692 
	C1125.318726,695.048584 1136.181641,693.598328 1146.806763,691.879395 
	C1169.702393,688.175415 1189.681885,678.026672 1206.391602,661.979797 
	C1220.600708,648.334351 1230.964233,631.984253 1238.179565,613.631714 
	C1238.604126,612.551758 1240.036621,611.868103 1241.000000,611.000000 
M553.000000,301.500000 
	C525.371704,273.512909 497.743469,245.525818 469.918030,217.339005 
	C430.640106,257.415192 391.900940,296.941681 352.359406,337.286865 
	C365.375488,337.286865 377.121307,337.286865 389.240204,337.286865 
	C389.240204,381.710083 389.240204,425.773102 389.240204,469.688446 
	C406.363434,469.688446 423.099335,469.688446 440.220703,469.688446 
	C440.220703,440.644318 440.220703,411.910217 440.220703,383.303436 
	C460.347992,383.303436 480.082855,383.303436 500.204468,383.303436 
	C500.204468,412.339294 500.204468,441.073395 500.204468,469.703613 
	C517.332703,469.703613 534.068298,469.703613 551.184998,469.703613 
	C551.184998,425.345428 551.184998,381.282440 551.184998,336.880096 
	C562.645325,336.880096 573.724243,336.880096 584.816711,336.880096 
	C584.890198,336.049683 585.168213,335.336670 584.943420,335.098877 
	C574.489746,324.039917 563.992371,313.022339 553.000000,301.500000 
M926.489868,685.000000 
	C930.593140,685.000000 934.696411,685.000000 938.717468,685.000000 
	C938.717468,591.362305 938.717468,498.295074 938.717468,405.285461 
	C918.695496,405.285461 898.957397,405.285461 879.282898,405.285461 
	C879.282898,498.638458 879.282898,591.705688 879.282898,685.000000 
	C894.873840,685.000000 910.182983,685.000000 926.489868,685.000000 
z"/>
<path fill="#FFFFFF" opacity="1.000000" stroke="none" 
	d="
M472.571533,0.999996 
	C474.813629,2.608077 476.419250,4.573616 478.473145,5.768764 
	C498.198914,17.247072 518.025024,28.552723 537.773743,39.991882 
	C562.395508,54.253651 586.932617,68.661926 611.578857,82.881134 
	C632.597046,95.007210 653.763367,106.876534 674.780945,119.003563 
	C697.059631,131.858200 719.207336,144.939835 741.473389,157.816513 
	C761.645020,169.481964 781.933655,180.945129 802.108032,192.605942 
	C826.880798,206.924667 851.554993,221.413971 876.335327,235.719559 
	C894.846680,246.406082 913.456360,256.922333 932.027588,267.505096 
	C936.552612,270.083710 939.279053,273.211945 939.150208,279.160217 
	C938.743225,297.945801 939.000000,316.745758 939.000000,335.769104 
	C918.932007,335.769104 899.194763,335.769104 879.000000,335.769104 
	C879.000000,328.391907 878.826721,321.105194 879.084595,313.833740 
	C879.188843,310.895264 878.049988,309.491119 875.665344,308.116638 
	C853.243103,295.192871 830.914368,282.106934 808.503235,269.163879 
	C788.324829,257.510223 768.042480,246.036346 747.868103,234.375641 
	C723.095215,220.056946 698.419800,205.569595 673.639771,191.263275 
	C655.129272,180.576508 636.475769,170.137283 617.966187,159.448868 
	C597.922852,147.874756 577.997498,136.096527 557.973389,124.488907 
	C543.785095,116.264244 529.503906,108.199760 515.290344,100.018402 
	C501.225250,91.922531 487.235840,83.693253 473.085480,75.750107 
	C471.521149,74.871994 468.667542,74.687737 467.174377,75.531326 
	C450.381775,85.018730 433.721497,94.741287 417.059937,104.459366 
	C399.285248,114.826668 381.591370,125.333145 363.780212,135.637100 
	C347.645355,144.971313 331.350739,154.029404 315.214783,163.361816 
	C290.302643,177.770050 265.496521,192.361542 240.586838,206.774124 
	C221.944061,217.560669 203.173859,228.126907 184.524628,238.902405 
	C164.482880,250.482498 144.554413,262.258759 124.505783,273.826782 
	C104.603340,285.310486 84.661041,296.727722 64.608070,307.945007 
	C61.672943,309.586884 60.924477,311.344055 60.931549,314.488708 
	C61.032021,359.151062 61.000000,403.813721 61.000000,448.476288 
	C61.000000,555.966431 61.070774,663.456726 60.822346,770.946289 
	C60.807602,777.325684 63.047451,780.227478 68.303650,783.168701 
	C95.792374,798.550537 123.061852,814.325745 150.351242,830.061890 
	C173.890915,843.635742 197.361267,857.329956 220.850830,870.990540 
	C245.450211,885.296692 270.021057,899.651917 294.634003,913.934692 
	C306.414337,920.770813 318.263000,927.489258 330.428925,934.460510 
	C330.998993,929.745972 331.685638,925.621643 331.963654,921.469971 
	C332.733612,909.973816 333.237427,898.459778 334.022003,886.964722 
	C335.274139,868.619446 336.650635,850.282593 338.008026,831.944580 
	C338.976990,818.854065 339.924072,805.761230 341.020508,792.681091 
	C342.265076,777.833679 343.704651,763.002625 344.976837,748.157471 
	C345.440216,742.750305 345.602417,737.317993 346.011719,731.905518 
	C347.310638,714.729797 348.665314,697.558350 349.989258,680.384583 
	C350.342590,675.801086 350.711761,671.218079 350.989410,666.629761 
	C351.685364,655.128418 352.262939,643.619690 353.018036,632.122375 
	C353.943604,618.029236 354.970032,603.942566 356.011505,589.857361 
	C356.967255,576.932678 357.977631,564.011841 359.025604,551.094360 
	C359.179352,549.199280 359.675201,547.331848 360.082367,545.063965 
	C345.044312,545.063965 330.272522,545.063965 315.252625,545.063965 
	C315.252625,531.309753 315.252625,517.905151 315.252625,504.249512 
	C420.692444,504.249512 526.090759,504.249512 631.744629,504.249512 
	C631.744629,517.684631 631.744629,531.089233 631.744629,545.023315 
	C614.505676,545.023315 597.290283,545.023315 580.256836,545.023315 
	C580.863708,553.037109 581.504883,560.534180 581.985046,568.041504 
	C583.035095,584.460083 583.956177,600.887024 585.024902,617.304382 
	C585.578918,625.815125 586.305908,634.315063 587.006348,642.815674 
	C588.311646,658.658020 589.675049,674.495605 590.969971,690.338806 
	C591.385071,695.417480 591.701782,700.505249 591.991333,705.593018 
	C592.683838,717.761414 593.256226,729.937012 594.020020,742.100830 
	C594.936462,756.694580 595.979370,771.280518 597.007935,785.867065 
	C597.978027,799.624390 599.014282,813.377014 599.996277,827.133484 
	C601.013855,841.387451 601.988037,855.644348 603.005554,869.898315 
	C603.987549,883.654663 604.943542,897.413330 606.022827,911.162231 
	C606.611084,918.655457 607.431702,926.130432 608.232544,934.502808 
	C610.789795,933.323120 613.103149,932.470093 615.204651,931.251648 
	C628.975891,923.267334 642.684937,915.175842 656.446045,907.173950 
	C672.977417,897.561340 689.514893,887.958740 706.096924,878.434021 
	C722.261169,869.149109 738.525330,860.037964 754.671021,850.721252 
	C770.823364,841.400696 786.843628,831.851135 802.995361,822.529419 
	C819.139832,813.211792 835.391846,804.080872 851.564270,794.811340 
	C860.078613,789.931213 868.580444,785.022400 876.934021,779.876648 
	C878.080322,779.170593 878.864868,777.030151 878.909119,775.527100 
	C879.114502,768.553345 879.000000,761.570129 879.000000,754.295776 
	C898.936035,754.295776 918.674011,754.295776 939.000000,754.295776 
	C939.000000,758.117126 939.000000,762.051880 939.000000,765.986572 
	C939.000000,780.985229 938.791382,795.988525 939.130737,810.979492 
	C939.228821,815.312073 937.440857,818.036560 934.262390,819.909729 
	C919.868958,828.392334 905.336670,836.638977 890.881714,845.017822 
	C876.973328,853.079834 863.107849,861.215820 849.206421,869.289795 
	C835.580139,877.203918 821.933289,885.082642 808.293518,892.973633 
	C791.881287,902.468567 775.484131,911.989807 759.048035,921.443420 
	C745.116760,929.456421 731.097839,937.317566 717.191956,945.373901 
	C692.290222,959.800659 667.479431,974.384399 642.563416,988.786194 
	C624.058533,999.482239 605.403503,1009.918701 586.894470,1020.607605 
	C564.483948,1033.549561 542.181519,1046.678467 519.784546,1059.643921 
	C505.875427,1067.695923 491.866272,1075.574951 477.933472,1083.586426 
	C476.003784,1084.695923 474.255219,1086.120483 472.711395,1087.699585 
	C471.285645,1088.000000 469.571289,1088.000000 467.426666,1087.626221 
	C462.312927,1084.318970 457.694611,1081.274780 452.934052,1078.472168 
	C436.862762,1069.010742 420.781311,1059.564819 404.627228,1050.245728 
	C388.480255,1040.930542 372.199615,1031.847168 356.054321,1022.529114 
	C339.902924,1013.207520 323.887848,1003.649780 307.736908,994.327332 
	C291.592224,985.008362 275.306946,975.932861 259.166901,966.605957 
	C236.759720,953.657410 214.467102,940.510559 192.056351,927.568298 
	C173.546768,916.878906 154.893219,906.438904 136.382278,895.751831 
	C111.601791,881.445007 86.891609,867.016357 62.162457,852.620728 
	C47.568695,844.125183 33.000336,835.586121 18.412870,827.079834 
	C12.619304,823.701477 6.804923,820.358826 1.000006,817.000000 
	C1.000000,635.645752 1.000000,454.291534 1.361268,272.467255 
	C3.371616,270.685913 4.887655,269.144714 6.691533,268.101013 
	C17.811497,261.667114 29.004707,255.360031 40.157925,248.983429 
	C62.896194,235.983383 85.666534,223.038651 108.345589,209.935989 
	C132.985443,195.700546 157.497253,181.243439 182.137985,167.009506 
	C204.817276,153.908600 227.637131,141.050995 250.315552,127.948586 
	C274.955872,113.712700 299.458893,99.239075 324.106964,85.016670 
	C345.120911,72.891197 366.300446,61.052849 387.324982,48.945507 
	C410.872253,35.385384 434.356293,21.714481 457.790161,7.959394 
	C461.086151,6.024731 463.940979,3.338399 467.000000,1.000001 
	C468.714355,1.000000 470.428711,1.000000 472.571533,0.999996 
M476.959442,829.550354 
	C466.603973,836.036682 456.236206,842.503479 445.896118,849.014221 
	C432.153687,857.667175 418.407959,866.315369 404.710815,875.039612 
	C394.536530,881.519958 384.437317,888.118042 374.058258,894.822876 
	C373.718170,901.364990 373.492676,908.283997 372.959534,915.179260 
	C372.494415,921.194824 371.515656,927.171204 371.067291,933.187500 
	C370.540619,940.253723 370.152710,947.341980 370.067810,954.425049 
	C370.012756,959.018188 376.632690,962.381592 380.485626,959.981018 
	C383.214935,958.280640 385.941620,956.575562 388.649261,954.840942 
	C405.723785,943.903198 422.756287,932.899353 439.871918,922.026306 
	C465.799561,905.555115 491.791809,889.185669 517.740784,872.747986 
	C532.123596,863.637085 546.474182,854.475220 561.107666,845.165649 
	C560.417664,838.201599 559.515747,831.069397 559.044678,823.908936 
	C558.223267,811.422546 557.724121,798.915161 556.936951,786.426208 
	C556.822449,784.610107 556.327026,781.876465 555.167786,781.320923 
	C553.897034,780.712219 551.408569,781.752563 549.868652,782.731506 
	C525.699768,798.095337 501.598480,813.565369 476.959442,829.550354 
M422.027740,815.467896 
	C430.894440,809.934326 439.802704,804.466003 448.618164,798.851990 
	C462.058411,790.292664 475.393158,781.567505 488.847443,773.030518 
	C509.210144,760.109924 529.622437,747.267151 550.057068,734.460632 
	C552.368835,733.011780 553.283630,731.300110 553.036011,728.561890 
	C551.945190,716.497803 550.971375,704.422729 550.009155,692.347351 
	C549.311279,683.589661 548.698242,674.825317 547.950256,664.756226 
	C544.059204,667.242859 541.143372,669.123291 538.211182,670.977722 
	C508.581543,689.716431 478.922974,708.409607 449.326538,727.200500 
	C428.540588,740.397522 407.904877,753.833069 387.017487,766.866150 
	C384.274811,768.577515 383.210083,770.462158 383.029663,773.196838 
	C382.293427,784.355469 381.764160,795.528381 380.961578,806.681824 
	C380.516693,812.864014 379.544769,819.007385 379.063873,825.188049 
	C378.614441,830.964355 378.499817,836.766785 378.196350,843.475159 
	C393.013580,834.073914 407.256775,825.036987 422.027740,815.467896 
M542.510498,586.006653 
	C541.874573,576.719299 541.238708,567.431885 540.562744,557.559692 
	C538.802490,558.321350 537.249023,558.754700 535.955017,559.589905 
	C521.347656,569.018250 506.806732,578.549377 492.196625,587.973389 
	C459.748932,608.903198 427.254181,629.760193 394.866913,650.782898 
	C393.462219,651.694641 392.275360,653.897827 392.116455,655.604614 
	C391.490875,662.325134 391.471008,669.099792 390.943115,675.832153 
	C389.881134,689.376404 388.633698,702.906128 387.404114,717.119751 
	C390.417206,715.714417 392.718781,714.930969 394.714722,713.665527 
	C417.672943,699.109985 440.571136,684.459839 463.512482,669.877686 
	C489.714783,653.222839 515.960327,636.635925 542.114868,619.906494 
	C543.404907,619.081299 544.846985,617.141785 544.790649,615.780396 
	C544.390808,606.125061 543.618103,596.485229 542.510498,586.006653 
M504.360779,929.967590 
	C475.627808,948.130981 446.894836,966.294373 417.705017,984.746582 
	C435.497864,994.998108 452.875458,1005.010376 470.101959,1014.935608 
	C471.591095,1013.990173 472.921387,1013.062683 474.326141,1012.266663 
	C486.481720,1005.378723 498.696167,998.593506 510.804657,991.624146 
	C527.655090,981.925415 544.368896,971.988281 561.263123,962.367371 
	C568.863159,958.039246 568.681152,958.298035 568.069641,950.197876 
	C566.844482,933.968567 566.029907,917.708557 564.972656,901.466003 
	C564.788452,898.636353 564.245544,895.830139 563.717834,891.888733 
	C543.599731,904.780396 524.285828,917.156677 504.360779,929.967590 
M428.502777,579.998596 
	C446.085907,568.732605 463.669037,557.466675 481.252167,546.200684 
	C481.087616,545.893311 480.923065,545.585876 480.758514,545.278442 
	C453.915161,545.278442 427.071777,545.278442 400.371002,545.278442 
	C399.063599,563.325317 397.777039,581.084412 396.376404,600.418152 
	C407.491516,593.421570 417.733887,586.974365 428.502777,579.998596 
z"/>
<path fill="#000000" opacity="1.000000" stroke="none" 
	d="
M1.000006,817.468628 
	C6.804923,820.358826 12.619304,823.701477 18.412870,827.079834 
	C33.000336,835.586121 47.568695,844.125183 62.162457,852.620728 
	C86.891609,867.016357 111.601791,881.445007 136.382278,895.751831 
	C154.893219,906.438904 173.546768,916.878906 192.056351,927.568298 
	C214.467102,940.510559 236.759720,953.657410 259.166901,966.605957 
	C275.306946,975.932861 291.592224,985.008362 307.736908,994.327332 
	C323.887848,1003.649780 339.902924,1013.207520 356.054321,1022.529114 
	C372.199615,1031.847168 388.480255,1040.930542 404.627228,1050.245728 
	C420.781311,1059.564819 436.862762,1069.010742 452.934052,1078.472168 
	C457.694611,1081.274780 462.312927,1084.318970 466.998199,1087.626221 
	C311.758881,1088.000000 156.517776,1088.000000 1.000000,1088.000000 
	C1.000000,997.979309 1.000000,907.958313 1.000006,817.468628 
z"/>
<path fill="#000000" opacity="1.000000" stroke="none" 
	d="
M466.531342,1.000001 
	C463.940979,3.338399 461.086151,6.024731 457.790161,7.959394 
	C434.356293,21.714481 410.872253,35.385384 387.324982,48.945507 
	C366.300446,61.052849 345.120911,72.891197 324.106964,85.016670 
	C299.458893,99.239075 274.955872,113.712700 250.315552,127.948586 
	C227.637131,141.050995 204.817276,153.908600 182.137985,167.009506 
	C157.497253,181.243439 132.985443,195.700546 108.345589,209.935989 
	C85.666534,223.038651 62.896194,235.983383 40.157925,248.983429 
	C29.004707,255.360031 17.811497,261.667114 6.691533,268.101013 
	C4.887655,269.144714 3.371616,270.685913 1.361268,271.998596 
	C1.000000,181.720306 1.000000,91.440598 1.000000,1.000000 
	C156.020859,1.000000 311.041779,1.000000 466.531342,1.000001 
z"/>
<path fill="#FFFFFF" opacity="1.000000" stroke="none" 
	d="
M1241.000000,610.562500 
	C1240.036621,611.868103 1238.604126,612.551758 1238.179565,613.631714 
	C1230.964233,631.984253 1220.600708,648.334351 1206.391602,661.979797 
	C1189.681885,678.026672 1169.702393,688.175415 1146.806763,691.879395 
	C1136.181641,693.598328 1125.318726,695.048584 1114.606567,694.796692 
	C1086.368530,694.132629 1060.044312,686.199768 1037.128418,669.422791 
	C1017.856323,655.313416 1004.586670,636.226013 996.057495,613.955566 
	C990.331177,599.003784 986.012024,583.665710 984.992432,567.566895 
	C984.327576,557.066895 982.686279,546.519653 983.188843,536.075745 
	C984.536743,508.062103 990.106689,480.929413 1004.344971,456.294891 
	C1015.210266,437.496338 1029.651611,422.186890 1048.874512,411.500824 
	C1064.928345,402.576538 1082.024536,397.736969 1100.213867,395.941528 
	C1123.079224,393.684479 1145.687256,394.282349 1167.519531,402.076019 
	C1192.523926,411.002167 1211.751099,427.167419 1224.106445,450.740509 
	C1229.205444,460.469238 1232.661133,471.050232 1237.096680,481.141449 
	C1238.459106,484.240906 1238.185181,485.196747 1234.627686,486.116577 
	C1216.294922,490.856689 1198.059937,495.975647 1180.237549,500.840424 
	C1177.477417,492.161377 1175.677612,483.085724 1171.796387,475.010437 
	C1163.754761,458.278748 1149.381836,449.867554 1131.291748,446.935516 
	C1113.962402,444.126770 1098.215454,448.073700 1083.457031,456.973145 
	C1068.855835,465.777802 1059.507812,478.967712 1053.039795,494.360596 
	C1044.563110,514.533508 1042.813599,535.841125 1044.155640,557.316162 
	C1045.358032,576.556946 1050.769653,594.842529 1062.331787,610.596375 
	C1072.861816,624.943726 1087.208496,634.008118 1104.619019,637.982483 
	C1123.593384,642.313904 1141.462036,639.472961 1157.119751,627.821533 
	C1165.365112,621.685974 1172.433594,613.972961 1177.137573,604.488647 
	C1181.117554,596.464661 1185.232788,588.507690 1189.551270,580.002747 
	C1206.392944,588.152222 1223.392944,596.378296 1240.696411,604.302124 
	C1241.000000,606.041687 1241.000000,608.083313 1241.000000,610.562500 
z"/>
<path fill="#FFFFFF" opacity="1.000000" stroke="none" 
	d="
M1025.468628,1088.000000 
	C1025.000000,1067.213379 1025.000000,1046.426880 1025.000000,1025.000000 
	C1096.788208,1025.000000 1168.425415,1025.000000 1240.531372,1025.000000 
	C1241.000000,1045.967041 1241.000000,1066.934082 1241.000000,1088.000000 
	C1169.312500,1088.000000 1097.624878,1088.000000 1025.468628,1088.000000 
z"/>
<path fill="#FFFFFF" opacity="1.000000" stroke="none" 
	d="
M553.250000,301.750000 
	C563.992371,313.022339 574.489746,324.039917 584.943420,335.098877 
	C585.168213,335.336670 584.890198,336.049683 584.816711,336.880096 
	C573.724243,336.880096 562.645325,336.880096 551.184998,336.880096 
	C551.184998,381.282440 551.184998,425.345428 551.184998,469.703613 
	C534.068298,469.703613 517.332703,469.703613 500.204468,469.703613 
	C500.204468,441.073395 500.204468,412.339294 500.204468,383.303436 
	C480.082855,383.303436 460.347992,383.303436 440.220703,383.303436 
	C440.220703,411.910217 440.220703,440.644318 440.220703,469.688446 
	C423.099335,469.688446 406.363434,469.688446 389.240204,469.688446 
	C389.240204,425.773102 389.240204,381.710083 389.240204,337.286865 
	C377.121307,337.286865 365.375488,337.286865 352.359406,337.286865 
	C391.900940,296.941681 430.640106,257.415192 469.918030,217.339005 
	C497.743469,245.525818 525.371704,273.512909 553.250000,301.750000 
z"/>
<path fill="#FFFFFF" opacity="1.000000" stroke="none" 
	d="
M925.990967,685.000000 
	C910.182983,685.000000 894.873840,685.000000 879.282898,685.000000 
	C879.282898,591.705688 879.282898,498.638458 879.282898,405.285461 
	C898.957397,405.285461 918.695496,405.285461 938.717468,405.285461 
	C938.717468,498.295074 938.717468,591.362305 938.717468,685.000000 
	C934.696411,685.000000 930.593140,685.000000 925.990967,685.000000 
z"/>
<path fill="#000000" opacity="1.000000" stroke="none" 
	d="
M477.220520,829.280640 
	C501.598480,813.565369 525.699768,798.095337 549.868652,782.731506 
	C551.408569,781.752563 553.897034,780.712219 555.167786,781.320923 
	C556.327026,781.876465 556.822449,784.610107 556.936951,786.426208 
	C557.724121,798.915161 558.223267,811.422546 559.044678,823.908936 
	C559.515747,831.069397 560.417664,838.201599 561.107666,845.165649 
	C546.474182,854.475220 532.123596,863.637085 517.740784,872.747986 
	C491.791809,889.185669 465.799561,905.555115 439.871918,922.026306 
	C422.756287,932.899353 405.723785,943.903198 388.649261,954.840942 
	C385.941620,956.575562 383.214935,958.280640 380.485626,959.981018 
	C376.632690,962.381592 370.012756,959.018188 370.067810,954.425049 
	C370.152710,947.341980 370.540619,940.253723 371.067291,933.187500 
	C371.515656,927.171204 372.494415,921.194824 372.959534,915.179260 
	C373.492676,908.283997 373.718170,901.364990 374.058258,894.822876 
	C384.437317,888.118042 394.536530,881.519958 404.710815,875.039612 
	C418.407959,866.315369 432.153687,857.667175 445.896118,849.014221 
	C456.236206,842.503479 466.603973,836.036682 477.220520,829.280640 
z"/>
<path fill="#000000" opacity="1.000000" stroke="none" 
	d="
M421.763855,815.733948 
	C407.256775,825.036987 393.013580,834.073914 378.196350,843.475159 
	C378.499817,836.766785 378.614441,830.964355 379.063873,825.188049 
	C379.544769,819.007385 380.516693,812.864014 380.961578,806.681824 
	C381.764160,795.528381 382.293427,784.355469 383.029663,773.196838 
	C383.210083,770.462158 384.274811,768.577515 387.017487,766.866150 
	C407.904877,753.833069 428.540588,740.397522 449.326538,727.200500 
	C478.922974,708.409607 508.581543,689.716431 538.211182,670.977722 
	C541.143372,669.123291 544.059204,667.242859 547.950256,664.756226 
	C548.698242,674.825317 549.311279,683.589661 550.009155,692.347351 
	C550.971375,704.422729 551.945190,716.497803 553.036011,728.561890 
	C553.283630,731.300110 552.368835,733.011780 550.057068,734.460632 
	C529.622437,747.267151 509.210144,760.109924 488.847443,773.030518 
	C475.393158,781.567505 462.058411,790.292664 448.618164,798.851990 
	C439.802704,804.466003 430.894440,809.934326 421.763855,815.733948 
z"/>
<path fill="#000000" opacity="1.000000" stroke="none" 
	d="
M542.737427,586.423584 
	C543.618103,596.485229 544.390808,606.125061 544.790649,615.780396 
	C544.846985,617.141785 543.404907,619.081299 542.114868,619.906494 
	C515.960327,636.635925 489.714783,653.222839 463.512482,669.877686 
	C440.571136,684.459839 417.672943,699.109985 394.714722,713.665527 
	C392.718781,714.930969 390.417206,715.714417 387.404114,717.119751 
	C388.633698,702.906128 389.881134,689.376404 390.943115,675.832153 
	C391.471008,669.099792 391.490875,662.325134 392.116455,655.604614 
	C392.275360,653.897827 393.462219,651.694641 394.866913,650.782898 
	C427.254181,629.760193 459.748932,608.903198 492.196625,587.973389 
	C506.806732,578.549377 521.347656,569.018250 535.955017,559.589905 
	C537.249023,558.754700 538.802490,558.321350 540.562744,557.559692 
	C541.238708,567.431885 541.874573,576.719299 542.737427,586.423584 
z"/>
<path fill="#000000" opacity="1.000000" stroke="none" 
	d="
M504.666382,929.750244 
	C524.285828,917.156677 543.599731,904.780396 563.717834,891.888733 
	C564.245544,895.830139 564.788452,898.636353 564.972656,901.466003 
	C566.029907,917.708557 566.844482,933.968567 568.069641,950.197876 
	C568.681152,958.298035 568.863159,958.039246 561.263123,962.367371 
	C544.368896,971.988281 527.655090,981.925415 510.804657,991.624146 
	C498.696167,998.593506 486.481720,1005.378723 474.326141,1012.266663 
	C472.921387,1013.062683 471.591095,1013.990173 470.101959,1014.935608 
	C452.875458,1005.010376 435.497864,994.998108 417.705017,984.746582 
	C446.894836,966.294373 475.627808,948.130981 504.666382,929.750244 
z"/>
<path fill="#000000" opacity="1.000000" stroke="none" 
	d="
M428.239532,580.262817 
	C417.733887,586.974365 407.491516,593.421570 396.376404,600.418152 
	C397.777039,581.084412 399.063599,563.325317 400.371002,545.278442 
	C427.071777,545.278442 453.915161,545.278442 480.758514,545.278442 
	C480.923065,545.585876 481.087616,545.893311 481.252167,546.200684 
	C463.669037,557.466675 446.085907,568.732605 428.239532,580.262817 
z"/>
</svg>