<svg version="1.1" id="Layer_1" xmlns="http://www.w3.org/2000/svg" xmlns:xlink="http://www.w3.org/1999/xlink" x="0px" y="0px"
	 width="100%" viewBox="0 0 150 150" enable-background="new 0 0 150 150" xml:space="preserve">
<path fill="#6E59E8" opacity="1.000000" stroke="none" 
	d="
M1.000000,4.000000 
	C1.000000,3.017860 1.000000,2.035719 1.000000,1.000000 
	C8.020747,1.000000 15.041591,1.000000 22.557796,1.363151 
	C25.587759,5.536570 27.722847,9.701032 30.729713,13.092599 
	C40.917736,24.584084 51.451569,35.768253 61.764393,47.150379 
	C64.071358,49.696541 66.456993,51.319046 69.912384,50.381790 
	C68.829124,58.755646 67.821678,66.755272 66.853195,74.445534 
	C66.039268,73.528984 64.937660,72.288483 63.613243,70.999336 
	C63.390438,70.950691 63.004860,70.707039 62.977863,70.528763 
	C62.950867,70.350487 62.887024,69.995575 62.899971,69.607040 
	C61.996944,67.854149 61.329346,66.182861 60.108654,65.195061 
	C58.118675,63.584759 55.316280,62.830235 53.650349,60.994400 
	C47.751293,54.493729 42.292320,47.596081 36.474083,41.019154 
	C27.736389,31.142071 18.923031,21.328135 9.951692,11.663866 
	C7.296755,8.803869 4.001716,6.538081 1.000000,4.000000 
z"/>
<path fill="#8561F5" opacity="1.000000" stroke="none" 
	d="
M151.000000,64.000000 
	C151.000000,69.022095 151.000000,74.044182 150.638123,79.507004 
	C149.117722,79.378548 147.675522,79.076218 146.847610,78.196068 
	C142.137299,73.188591 137.856567,67.744957 132.882858,63.026073 
	C127.593231,58.007454 121.694290,53.631058 116.044113,48.645439 
	C116.014877,47.877216 116.002930,47.437801 115.955917,46.652683 
	C114.950798,45.546947 113.980759,44.786911 112.697678,44.063980 
	C112.177002,44.133610 111.969376,44.166134 111.752998,44.189095 
	C111.744247,44.179531 111.721748,44.199223 111.770264,43.794312 
	C110.341072,35.704449 105.786041,30.063766 100.297592,24.728092 
	C93.949646,18.556862 88.145378,11.817616 82.267464,5.181154 
	C81.389977,4.190427 81.400360,2.413317 81.000000,1.000000 
	C85.356903,1.000000 89.713799,1.000000 94.560394,1.367759 
	C95.670395,3.246253 95.960701,5.035085 96.962738,6.224129 
	C105.692856,16.583502 114.429390,26.942633 123.409103,37.084839 
	C130.387726,44.966888 137.636459,52.616287 144.952850,60.187695 
	C146.561203,61.852112 148.963379,62.749428 151.000000,64.000000 
z"/>
<path fill="#6655E4" opacity="1.000000" stroke="none" 
	d="
M1.000000,4.468402 
	C4.001716,6.538081 7.296755,8.803869 9.951692,11.663866 
	C18.923031,21.328135 27.736389,31.142071 36.474083,41.019154 
	C42.292320,47.596081 47.751293,54.493729 53.650349,60.994400 
	C55.316280,62.830235 58.118675,63.584759 60.108654,65.195061 
	C61.329346,66.182861 61.996944,67.854149 62.511612,69.649521 
	C61.851028,70.112823 61.591740,70.145126 61.013725,70.303421 
	C59.794952,70.340630 58.894897,70.251846 57.885429,69.847008 
	C56.969482,69.219444 56.090412,68.524811 55.368740,68.661453 
	C51.892162,69.319748 48.458027,70.202164 44.694580,70.901955 
	C42.410656,68.190720 40.660355,65.375893 38.432369,63.011108 
	C29.933367,53.990253 21.261507,45.132492 12.704394,36.165920 
	C11.348467,34.745117 10.383209,32.946880 9.004749,31.553181 
	C6.426499,28.946440 3.677791,26.508289 1.000000,24.000000 
	C1.000000,17.645601 1.000000,11.291203 1.000000,4.468402 
z"/>
<path fill="#6E58E9" opacity="1.000000" stroke="none" 
	d="
M151.000000,143.000000 
	C151.000000,145.611069 151.000000,148.222137 151.000000,151.000000 
	C146.650299,151.000000 142.299271,151.000000 137.402954,150.653397 
	C134.833252,147.299576 132.990387,144.148392 130.744995,141.316406 
	C126.625870,136.121155 122.276894,131.107758 118.006065,126.033432 
	C117.046829,124.893723 116.221680,123.419037 114.983025,122.772369 
	C106.393845,118.288261 103.453423,108.790123 96.831383,102.585167 
	C94.942383,100.815140 92.118942,99.157875 91.593964,96.995003 
	C90.384254,92.011101 86.805191,91.617577 82.919052,90.574173 
	C82.913551,88.431908 82.993370,86.715004 83.277451,84.733635 
	C84.937943,83.911720 86.407463,82.857697 87.847694,82.896317 
	C91.239029,82.987244 94.616379,83.599419 98.076324,84.375130 
	C98.862259,88.157822 99.702888,91.180222 102.859367,93.632500 
	C107.412560,97.169876 111.588020,101.325386 115.370163,105.696884 
	C124.262299,115.974625 132.650360,126.691498 141.640289,136.879593 
	C144.018219,139.574448 147.840775,140.994553 151.000000,143.000000 
z"/>
<path fill="#504DDA" opacity="1.000000" stroke="none" 
	d="
M1.000000,99.000000 
	C1.000000,92.978844 1.000000,86.957695 1.334981,80.546829 
	C2.941287,81.183640 4.405649,82.044434 5.452458,83.263718 
	C12.020898,90.914391 18.358221,98.767738 25.057188,106.300415 
	C28.751976,110.455040 33.002270,114.115639 37.027351,118.359161 
	C37.728046,120.006737 38.161831,121.522011 39.122318,122.540649 
	C42.627697,126.258232 46.700356,129.503296 49.830357,133.497589 
	C54.328564,139.237885 61.586994,142.949829 63.000000,151.000000 
	C58.310745,151.000000 53.621487,151.000000 48.388115,150.665863 
	C47.543240,149.743317 47.340252,149.073273 46.927170,148.578705 
	C39.928680,140.199524 32.911724,131.835709 25.872292,123.490898 
	C25.235535,122.736069 24.374294,122.175201 23.689522,121.455536 
	C19.474951,117.026184 15.373839,112.484268 11.049791,108.165192 
	C7.845363,104.964455 4.360140,102.044846 1.000000,99.000000 
z"/>
<path fill="#6856E6" opacity="1.000000" stroke="none" 
	d="
M83.004364,90.999542 
	C86.805191,91.617577 90.384254,92.011101 91.593964,96.995003 
	C92.118942,99.157875 94.942383,100.815140 96.831383,102.585167 
	C103.453423,108.790123 106.393845,118.288261 114.983025,122.772369 
	C116.221680,123.419037 117.046829,124.893723 118.006065,126.033432 
	C122.276894,131.107758 126.625870,136.121155 130.744995,141.316406 
	C132.990387,144.148392 134.833252,147.299576 136.928833,150.653397 
	C131.645065,151.000000 126.290138,151.000000 120.441994,150.640747 
	C118.916801,148.638870 118.098480,146.803238 116.817642,145.385452 
	C109.398232,137.172867 102.150070,128.774139 94.273506,121.017715 
	C89.525681,116.342308 86.896767,109.457420 80.190109,106.679291 
	C80.834290,103.822243 81.283363,101.284233 81.635605,98.786316 
	C81.538765,98.826408 81.458160,98.632904 81.807022,98.622841 
	C82.412338,97.395271 82.668785,96.177773 82.955078,94.560944 
	C82.991409,93.107597 82.997887,92.053566 83.004364,90.999542 
z"/>
<path fill="#735AEC" opacity="1.000000" stroke="none" 
	d="
M151.000000,142.531723 
	C147.840775,140.994553 144.018219,139.574448 141.640289,136.879593 
	C132.650360,126.691498 124.262299,115.974625 115.370163,105.696884 
	C111.588020,101.325386 107.412560,97.169876 102.859367,93.632500 
	C99.702888,91.180222 98.862259,88.157822 98.378326,84.191116 
	C101.733597,82.419235 104.863808,81.205788 108.171188,80.275391 
	C114.240997,87.164551 120.131805,93.772293 126.031128,100.372421 
	C126.361839,100.742424 126.787949,101.026161 127.127296,101.389587 
	C133.301819,108.002213 139.387833,114.700912 145.705399,121.173698 
	C147.037323,122.538361 149.213058,123.079437 151.000000,124.000000 
	C151.000000,130.021149 151.000000,136.042297 151.000000,142.531723 
z"/>
<path fill="#8A63F7" opacity="1.000000" stroke="none" 
	d="
M151.000000,63.533134 
	C148.963379,62.749428 146.561203,61.852112 144.952850,60.187695 
	C137.636459,52.616287 130.387726,44.966888 123.409103,37.084839 
	C114.429390,26.942633 105.692856,16.583502 96.962738,6.224129 
	C95.960701,5.035085 95.670395,3.246253 95.025040,1.367759 
	C99.024544,1.000000 103.049088,1.000000 107.563889,1.358821 
	C108.983086,3.000245 109.786674,4.400761 110.862808,5.544933 
	C115.399490,10.368434 120.202522,14.953180 124.564560,19.926594 
	C132.069962,28.483944 139.265732,37.312538 146.741791,45.896351 
	C147.701340,46.998074 149.558609,47.317940 151.000000,48.000000 
	C151.000000,53.022091 151.000000,58.044186 151.000000,63.533134 
z"/>
<path fill="#795CED" opacity="1.000000" stroke="none" 
	d="
M151.000000,123.531601 
	C149.213058,123.079437 147.037323,122.538361 145.705399,121.173698 
	C139.387833,114.700912 133.301819,108.002213 127.127296,101.389587 
	C126.787949,101.026161 126.361839,100.742424 126.031128,100.372421 
	C120.131805,93.772293 114.240997,87.164551 108.412064,80.034805 
	C109.621437,77.297234 110.767105,75.083290 111.937454,72.908432 
	C111.962120,72.947517 111.883224,72.995659 112.086472,72.825577 
	C112.519707,72.388397 112.749695,72.121307 112.976555,71.927444 
	C112.973419,72.000687 112.826965,71.993935 113.038460,71.776428 
	C113.484749,71.008408 113.719543,70.457901 113.956161,69.940979 
	C113.957993,69.974579 113.893738,69.954567 114.209961,69.847427 
	C115.680557,68.159073 116.834930,66.577850 118.169891,65.281540 
	C120.393776,68.713585 122.384354,71.896591 124.494514,74.998230 
	C126.810204,78.401978 128.885574,82.063110 131.689590,85.020515 
	C136.950150,90.568832 143.589935,94.833389 146.709213,102.330017 
	C147.117737,103.311813 149.520767,103.463715 151.000000,104.000000 
	C151.000000,110.354401 151.000000,116.708794 151.000000,123.531601 
z"/>
<path fill="#6254E1" opacity="1.000000" stroke="none" 
	d="
M79.995010,106.998329 
	C86.896767,109.457420 89.525681,116.342308 94.273506,121.017715 
	C102.150070,128.774139 109.398232,137.172867 116.817642,145.385452 
	C118.098480,146.803238 118.916801,148.638870 119.974388,150.640747 
	C113.645599,151.000000 107.291206,151.000000 100.458015,150.627533 
	C97.964149,148.080963 95.930466,145.923782 93.937424,143.729675 
	C87.361694,136.490631 80.548782,129.442932 74.389839,121.864311 
	C72.578751,119.635757 72.636604,115.888374 71.886475,112.856888 
	C71.935020,112.876701 71.898315,112.974777 72.090157,112.826523 
	C72.534279,112.473686 72.758255,112.241753 72.958420,111.966812 
	C72.962914,111.951141 72.995438,111.948822 73.351685,111.933990 
	C75.803627,110.278885 77.899323,108.638603 79.995010,106.998329 
z"/>
<path fill="#4B4BD7" opacity="1.000000" stroke="none" 
	d="
M1.000000,99.468399 
	C4.360140,102.044846 7.845363,104.964455 11.049791,108.165192 
	C15.373839,112.484268 19.474951,117.026184 23.689522,121.455536 
	C24.374294,122.175201 25.235535,122.736069 25.872292,123.490898 
	C32.911724,131.835709 39.928680,140.199524 46.927170,148.578705 
	C47.340252,149.073273 47.543240,149.743317 47.921997,150.665863 
	C42.311958,151.000000 36.623920,151.000000 30.389072,150.663849 
	C24.174660,142.998505 18.810343,135.403641 12.716992,128.447388 
	C9.460447,124.729652 4.946486,122.113365 1.000002,119.000000 
	C1.000000,112.645599 1.000000,106.291206 1.000000,99.468399 
z"/>
<path fill="#8160F0" opacity="1.000000" stroke="none" 
	d="
M151.000000,103.531364 
	C149.520767,103.463715 147.117737,103.311813 146.709213,102.330017 
	C143.589935,94.833389 136.950150,90.568832 131.689590,85.020515 
	C128.885574,82.063110 126.810204,78.401978 124.494514,74.998230 
	C122.384354,71.896591 120.393776,68.713585 118.171616,64.826508 
	C117.553879,60.560345 117.115005,57.034111 116.760208,53.452179 
	C116.844284,53.396484 116.957359,53.563515 116.805649,53.289280 
	C116.407547,52.678116 116.161163,52.341183 115.931091,52.042603 
	C115.947395,52.080948 115.870499,52.113083 115.902344,51.721283 
	C115.976593,50.544399 116.018997,49.759319 116.061401,48.974236 
	C121.694290,53.631058 127.593231,58.007454 132.882858,63.026073 
	C137.856567,67.744957 142.137299,73.188591 146.847610,78.196068 
	C147.675522,79.076218 149.117722,79.378548 150.638123,79.973862 
	C151.000000,87.687576 151.000000,95.375153 151.000000,103.531364 
z"/>
<path fill="#735AEC" opacity="1.000000" stroke="none" 
	d="
M69.988213,50.007561 
	C66.456993,51.319046 64.071358,49.696541 61.764393,47.150379 
	C51.451569,35.768253 40.917736,24.584084 30.729713,13.092599 
	C27.722847,9.701032 25.587759,5.536570 23.026581,1.363151 
	C27.356899,1.000000 31.713799,1.000000 36.614311,1.337950 
	C37.994160,3.106512 38.601910,4.749431 39.702770,5.934146 
	C48.508633,15.410788 57.478176,24.735956 66.238220,34.254192 
	C69.108803,37.373230 71.509529,40.924709 74.104309,44.477844 
	C74.083488,44.677265 73.871964,45.017948 73.719917,45.202469 
	C73.387367,45.650967 73.232368,45.929153 73.085335,46.136993 
	C73.067795,46.052433 73.237389,46.019726 73.008255,46.286728 
	C72.543190,47.211529 72.307251,47.869324 72.092026,48.661316 
	C72.112732,48.795509 71.893356,48.955578 71.628006,49.034630 
	C70.904503,49.411636 70.446358,49.709595 69.988213,50.007561 
z"/>
<path fill="#5750DB" opacity="1.000000" stroke="none" 
	d="
M37.002136,117.998955 
	C33.002270,114.115639 28.751976,110.455040 25.057188,106.300415 
	C18.358221,98.767738 12.020898,90.914391 5.452458,83.263718 
	C4.405649,82.044434 2.941287,81.183640 1.334981,80.078552 
	C1.000000,74.977905 1.000000,69.955818 1.347685,64.538239 
	C3.253061,65.277298 5.020062,66.211327 6.332291,67.581032 
	C12.076055,73.576378 17.680147,79.705360 23.352041,85.769844 
	C25.359598,87.916344 27.406219,90.026665 29.454239,92.134819 
	C30.382830,93.090668 31.358324,94.000954 32.488770,95.103828 
	C33.793327,92.598564 34.730778,90.798286 35.704231,89.377571 
	C35.536900,92.283768 35.333576,94.810394 35.216759,97.616592 
	C35.484104,98.239128 35.664940,98.582100 36.003002,99.256912 
	C38.833393,103.645767 41.506565,107.702782 43.839539,111.828972 
	C42.666073,112.265121 41.832806,112.632103 40.727818,113.098755 
	C39.304779,114.798599 38.153454,116.398773 37.002136,117.998955 
z"/>
<path fill="#5D53DE" opacity="1.000000" stroke="none" 
	d="
M71.837921,112.837067 
	C72.636604,115.888374 72.578751,119.635757 74.389839,121.864311 
	C80.548782,129.442932 87.361694,136.490631 93.937424,143.729675 
	C95.930466,145.923782 97.964149,148.080963 99.989609,150.627533 
	C92.645744,151.000000 85.291496,151.000000 77.396324,150.640320 
	C74.839645,146.955917 73.127769,143.391449 70.737526,140.362213 
	C67.070076,135.714325 62.935936,131.434692 58.998489,126.605194 
	C58.325840,123.767273 57.654552,121.322937 56.944530,118.737564 
	C57.874897,118.170761 58.974720,117.500725 60.407558,116.672714 
	C64.439690,115.288857 68.138809,114.062958 71.837921,112.837067 
z"/>
<path fill="#8F64FA" opacity="1.000000" stroke="none" 
	d="
M151.000000,47.531731 
	C149.558609,47.317940 147.701340,46.998074 146.741791,45.896351 
	C139.265732,37.312538 132.069962,28.483944 124.564560,19.926594 
	C120.202522,14.953180 115.399490,10.368434 110.862808,5.544933 
	C109.786674,4.400761 108.983086,3.000245 108.027069,1.358821 
	C113.688042,1.000000 119.376083,1.000000 125.557884,1.371711 
	C127.395226,4.350931 128.263260,7.393033 130.173187,9.482970 
	C135.514114,15.327284 141.246140,20.818645 146.921204,26.349369 
	C148.060135,27.459335 149.629242,28.127907 151.000000,29.000000 
	C151.000000,35.021152 151.000000,41.042305 151.000000,47.531731 
z"/>
<path fill="#795CEC" opacity="1.000000" stroke="none" 
	d="
M74.125122,44.278427 
	C71.509529,40.924709 69.108803,37.373230 66.238220,34.254192 
	C57.478176,24.735956 48.508633,15.410788 39.702770,5.934146 
	C38.601910,4.749431 37.994160,3.106512 37.078964,1.337950 
	C41.689255,1.000000 46.378513,1.000000 51.612816,1.336083 
	C52.665474,2.518054 53.057400,3.465708 53.698338,4.194315 
	C61.334518,12.875041 69.137337,21.413563 76.602280,30.238218 
	C79.280396,33.404137 80.857841,37.712559 85.974304,36.640514 
	C81.843597,39.320225 77.984360,41.799328 74.125122,44.278427 
z"/>
<path fill="#8261F1" opacity="1.000000" stroke="none" 
	d="
M80.532394,1.000000 
	C81.400360,2.413317 81.389977,4.190427 82.267464,5.181154 
	C88.145378,11.817616 93.949646,18.556862 100.297592,24.728092 
	C105.786041,30.063766 110.341072,35.704449 111.489380,43.622726 
	C106.564667,41.007862 101.969368,38.159668 97.022316,35.076538 
	C94.781090,34.557026 92.891617,34.272457 90.930298,33.642555 
	C89.660332,31.326838 88.736504,29.108408 87.217278,27.428408 
	C80.097153,19.554770 72.793388,11.847459 65.617180,4.023900 
	C64.868767,3.207972 64.529243,2.016973 64.000000,1.000000 
	C69.354927,1.000000 74.709862,1.000000 80.532394,1.000000 
z"/>
<path fill="#5C53DD" opacity="1.000000" stroke="none" 
	d="
M35.668228,88.998009 
	C34.730778,90.798286 33.793327,92.598564 32.488770,95.103828 
	C31.358324,94.000954 30.382830,93.090668 29.454239,92.134819 
	C27.406219,90.026665 25.359598,87.916344 23.352041,85.769844 
	C17.680147,79.705360 12.076055,73.576378 6.332291,67.581032 
	C5.020062,66.211327 3.253061,65.277298 1.347685,64.071381 
	C1.000000,58.645069 1.000000,53.290142 1.349240,47.539650 
	C4.291537,48.846794 7.958670,49.955574 9.286946,52.357662 
	C14.344810,61.504433 20.967936,69.221161 28.633667,76.149818 
	C30.868654,78.169907 33.323059,79.947235 36.285595,82.324242 
	C37.476006,79.555229 38.239307,77.779709 39.386536,76.003647 
	C40.794228,76.000000 41.818005,75.996880 42.782600,76.321945 
	C40.485497,80.097725 38.247570,83.545319 35.915497,87.093109 
	C35.664368,87.442955 35.669067,87.694382 35.861710,88.221031 
	C35.814724,88.662315 35.741478,88.830162 35.668228,88.998009 
z"/>
<path fill="#6154E2" opacity="1.000000" stroke="none" 
	d="
M42.841778,75.993767 
	C41.818005,75.996880 40.794228,76.000000 39.119518,75.904816 
	C38.250309,74.359787 38.032032,72.913055 37.963715,72.460243 
	C33.940262,70.039185 29.829906,68.579849 27.152256,65.760048 
	C19.800022,58.017502 13.130883,49.630089 5.968949,41.698765 
	C4.943345,40.562984 2.686842,40.538689 1.000000,40.000000 
	C1.000000,34.977909 1.000000,29.955816 1.000000,24.466862 
	C3.677791,26.508289 6.426499,28.946440 9.004749,31.553181 
	C10.383209,32.946880 11.348467,34.745117 12.704394,36.165920 
	C21.261507,45.132492 29.933367,53.990253 38.432369,63.011108 
	C40.660355,65.375893 42.410656,68.190720 44.692829,71.262985 
	C45.005875,72.449417 45.006428,73.171722 44.830574,73.982582 
	C44.654167,74.071136 44.259529,74.081497 44.033775,74.242981 
	C43.561340,74.679047 43.314663,74.953621 43.053764,75.432098 
	C43.039539,75.636002 42.841778,75.993767 42.841778,75.993767 
z"/>
<path fill="#4549D4" opacity="1.000000" stroke="none" 
	d="
M1.000002,119.468658 
	C4.946486,122.113365 9.460447,124.729652 12.716992,128.447388 
	C18.810343,135.403641 24.174660,142.998505 29.921131,150.663849 
	C20.403208,151.000000 10.806414,151.000000 1.000000,151.000000 
	C1.000000,140.646713 1.000000,130.292023 1.000002,119.468658 
z"/>
<path fill="#7D5DEF" opacity="1.000000" stroke="none" 
	d="
M63.539364,1.000000 
	C64.529243,2.016973 64.868767,3.207972 65.617180,4.023900 
	C72.793388,11.847459 80.097153,19.554770 87.217278,27.428408 
	C88.736504,29.108408 89.660332,31.326838 90.542252,33.648239 
	C88.898605,34.771637 87.571159,35.544018 86.265854,36.346916 
	C86.288002,36.377434 86.245766,36.439903 86.245766,36.439903 
	C80.857841,37.712559 79.280396,33.404137 76.602280,30.238218 
	C69.137337,21.413563 61.334518,12.875041 53.698338,4.194315 
	C53.057400,3.465708 52.665474,2.518054 52.078934,1.336083 
	C55.692909,1.000000 59.385818,1.000000 63.539364,1.000000 
z"/>
<path fill="#554FDC" opacity="1.000000" stroke="none" 
	d="
M58.999847,126.998779 
	C62.935936,131.434692 67.070076,135.714325 70.737526,140.362213 
	C73.127769,143.391449 74.839645,146.955917 76.927704,150.640320 
	C72.643097,151.000000 68.286201,151.000000 63.464649,151.000000 
	C61.586994,142.949829 54.328564,139.237885 49.830357,133.497589 
	C46.700356,129.503296 42.627697,126.258232 39.122318,122.540649 
	C38.161831,121.522011 37.728046,120.006737 37.027351,118.359161 
	C38.153454,116.398773 39.304779,114.798599 40.766418,113.445053 
	C42.051407,114.461121 43.026085,115.230553 44.185860,116.147408 
	C44.607273,116.506134 44.816956,116.741188 44.999985,117.250076 
	C44.999924,117.666870 44.999886,117.833588 44.642349,118.009872 
	C43.281796,118.436470 42.278732,118.853500 41.275669,119.270531 
	C41.282448,119.859467 41.289230,120.448402 41.296009,121.037338 
	C44.869236,122.141441 48.442463,123.245544 52.276070,124.430099 
	C52.180695,125.565735 52.057301,127.034950 51.926891,128.587692 
	C54.564510,127.995163 56.782177,127.496971 58.999847,126.998779 
z"/>
<path fill="#9566FD" opacity="1.000000" stroke="none" 
	d="
M151.000000,28.531342 
	C149.629242,28.127907 148.060135,27.459335 146.921204,26.349369 
	C141.246140,20.818645 135.514114,15.327284 130.173187,9.482970 
	C128.263260,7.393033 127.395226,4.350931 126.025818,1.371711 
	C134.263916,1.000000 142.527832,1.000000 151.000000,1.000000 
	C151.000000,10.019829 151.000000,19.041256 151.000000,28.531342 
z"/>
<path fill="#5E53E0" opacity="1.000000" stroke="none" 
	d="
M1.000000,40.437500 
	C2.686842,40.538689 4.943345,40.562984 5.968949,41.698765 
	C13.130883,49.630089 19.800022,58.017502 27.152256,65.760048 
	C29.829906,68.579849 33.940262,70.039185 37.963715,72.460243 
	C38.032032,72.913055 38.250309,74.359787 38.735596,75.905350 
	C38.239307,77.779709 37.476006,79.555229 36.285595,82.324242 
	C33.323059,79.947235 30.868654,78.169907 28.633667,76.149818 
	C20.967936,69.221161 14.344810,61.504433 9.286946,52.357662 
	C7.958670,49.955574 4.291537,48.846794 1.349240,47.072044 
	C1.000000,44.958332 1.000000,42.916668 1.000000,40.437500 
z"/>
<path fill="#F9F7FD" opacity="1.000000" stroke="none" 
	d="
M44.259529,74.081497 
	C44.259529,74.081497 44.654167,74.071136 45.186020,73.919579 
	C49.810196,72.566360 53.902519,71.364708 57.994843,70.163055 
	C58.894897,70.251846 59.794952,70.340630 61.239635,70.516129 
	C62.191128,70.637573 62.597996,70.672302 63.004860,70.707031 
	C63.004860,70.707039 63.390438,70.950691 63.670135,71.411026 
	C64.316177,75.024788 64.682510,78.178207 65.065407,81.474182 
	C62.604973,81.114838 60.969898,80.739624 59.320408,80.658836 
	C52.326935,80.316307 46.618847,85.113907 45.801434,91.926285 
	C44.984001,98.738831 49.492920,104.865425 56.245281,106.117096 
	C63.005226,107.370171 69.839256,103.474464 71.052795,96.716705 
	C71.976212,91.574501 72.645035,85.885117 71.392593,80.956139 
	C68.630554,70.086128 67.884995,59.569962 71.893356,48.955578 
	C71.893356,48.955578 72.112732,48.795509 72.374924,48.423916 
	C72.837212,47.374790 73.037300,46.697258 73.237389,46.019726 
	C73.237389,46.019726 73.067795,46.052433 73.364716,46.076767 
	C73.731735,45.740047 73.801849,45.378998 73.871964,45.017948 
	C73.871964,45.017948 74.083488,44.677265 74.104309,44.477844 
	C77.984360,41.799328 81.843597,39.320225 85.974304,36.640514 
	C86.245766,36.439903 86.288002,36.377434 86.662018,36.309761 
	C90.482048,35.931889 93.928055,35.621685 97.374062,35.311478 
	C101.969368,38.159668 106.564667,41.007862 111.440857,44.027637 
	C111.721748,44.199223 111.744247,44.179531 111.830917,44.526329 
	C113.235222,47.286442 114.552864,49.699760 115.870499,52.113083 
	C115.870499,52.113083 115.947395,52.080948 115.975365,52.387573 
	C116.321342,52.983971 116.639351,53.273743 116.957359,53.563515 
	C116.957359,53.563515 116.844284,53.396484 116.632454,53.931271 
	C115.578331,59.628895 114.736038,64.791733 113.893738,69.954567 
	C113.893738,69.954567 113.957993,69.974579 113.702377,70.121681 
	C113.240158,70.843834 113.033554,71.418884 112.826965,71.993935 
	C112.826965,71.993935 112.973419,72.000687 112.691200,71.994675 
	C112.233727,72.324326 112.058479,72.659996 111.883224,72.995659 
	C111.883224,72.995659 111.962120,72.947517 111.641281,73.069168 
	C105.346542,79.619560 98.188232,82.926468 89.002151,81.750969 
	C88.249405,78.393120 87.524582,75.159836 86.935570,71.612396 
	C90.745232,71.057236 94.599014,71.436386 98.052086,70.434471 
	C103.674767,68.803009 106.825317,62.945721 106.164810,57.019756 
	C105.543083,51.441719 101.204292,46.879654 95.584099,45.894573 
	C89.465683,44.822163 84.468117,47.669888 81.139999,54.282211 
	C81.011162,54.680569 81.004578,54.852177 80.884766,55.150433 
	C80.771530,55.277081 80.781647,55.616707 80.554741,55.949440 
	C76.939278,66.265594 80.467957,75.587708 83.073181,84.998108 
	C82.993370,86.715004 82.913551,88.431908 82.919052,90.574173 
	C82.997887,92.053566 82.991409,93.107597 82.651573,94.733124 
	C82.031525,96.414047 81.744843,97.523476 81.458160,98.632904 
	C81.458160,98.632904 81.538765,98.826408 81.376205,99.026352 
	C78.474251,103.467133 75.734848,107.707977 72.995438,111.948822 
	C72.995438,111.948822 72.962914,111.951141 72.697159,112.028107 
	C72.253708,112.394974 72.076012,112.684875 71.898315,112.974777 
	C71.898315,112.974777 71.935020,112.876701 71.886475,112.856880 
	C68.138809,114.062958 64.439690,115.288857 60.022148,116.569717 
	C57.757442,116.706535 56.211163,116.788383 54.491676,116.593346 
	C53.895580,116.259476 53.472691,116.202499 52.727238,115.981552 
	C49.664658,114.472351 46.924637,113.127129 44.163422,111.781387 
	C44.142227,111.780884 44.179733,111.759804 44.179733,111.759804 
	C41.506565,107.702782 38.833393,103.645767 36.021175,98.937546 
	C35.631500,97.969902 35.380875,97.653465 35.130249,97.337029 
	C35.333576,94.810394 35.536900,92.283768 35.704227,89.377571 
	C35.741478,88.830162 35.814724,88.662315 35.956936,87.992126 
	C36.025906,87.489792 36.009644,86.992912 36.009644,86.992912 
	C38.247570,83.545319 40.485497,80.097725 42.782600,76.321945 
	C42.841778,75.993767 43.039539,75.636002 43.319984,75.319672 
	C43.820133,74.696068 44.039833,74.388779 44.259529,74.081497 
z"/>
<path fill="#6558DC" opacity="1.000000" stroke="none" 
	d="
M71.628006,49.034630 
	C67.884995,59.569962 68.630554,70.086128 71.392593,80.956139 
	C72.645035,85.885117 71.976212,91.574501 71.052795,96.716705 
	C69.839256,103.474464 63.005226,107.370171 56.245281,106.117096 
	C49.492920,104.865425 44.984001,98.738831 45.801434,91.926285 
	C46.618847,85.113907 52.326935,80.316307 59.320408,80.658836 
	C60.969898,80.739624 62.604973,81.114838 65.065407,81.474182 
	C64.682510,78.178207 64.316177,75.024788 63.892944,71.459671 
	C64.937660,72.288483 66.039268,73.528984 66.853195,74.445534 
	C67.821678,66.755272 68.829124,58.755646 69.912384,50.381790 
	C70.446358,49.709595 70.904503,49.411636 71.628006,49.034630 
z"/>
<path fill="#6558DC" opacity="1.000000" stroke="none" 
	d="
M62.977863,70.528763 
	C62.597996,70.672302 62.191128,70.637573 61.558357,70.390137 
	C61.591740,70.145126 61.851028,70.112823 62.498669,70.038048 
	C62.887024,69.995575 62.950867,70.350487 62.977863,70.528763 
z"/>
<path fill="#8261F1" opacity="1.000000" stroke="none" 
	d="
M115.902344,51.721283 
	C114.552864,49.699760 113.235222,47.286442 111.839661,44.535889 
	C111.969376,44.166134 112.177002,44.133610 112.857117,44.322128 
	C114.216736,45.361572 115.103859,46.179977 115.990990,46.998383 
	C116.002930,47.437801 116.014877,47.877216 116.044113,48.645435 
	C116.018997,49.759319 115.976593,50.544399 115.902344,51.721283 
z"/>
<path fill="#8160F0" opacity="1.000000" stroke="none" 
	d="
M115.955917,46.652683 
	C115.103859,46.179977 114.216736,45.361572 113.170166,44.285023 
	C113.980759,44.786911 114.950798,45.546947 115.955917,46.652683 
z"/>
<path fill="#6558DC" opacity="1.000000" stroke="none" 
	d="
M57.885429,69.847008 
	C53.902519,71.364708 49.810196,72.566360 45.362427,73.831024 
	C45.006428,73.171722 45.005875,72.449417 45.007076,71.366074 
	C48.458027,70.202164 51.892162,69.319748 55.368740,68.661453 
	C56.090412,68.524811 56.969482,69.219444 57.885429,69.847008 
z"/>
<path fill="#715CE1" opacity="1.000000" stroke="none" 
	d="
M86.799759,71.926559 
	C87.524582,75.159836 88.249405,78.393120 89.002151,81.750969 
	C98.188232,82.926468 105.346542,79.619560 111.616608,73.030075 
	C110.767105,75.083290 109.621437,77.297234 108.234894,79.751755 
	C104.863808,81.205788 101.733597,82.419235 98.301384,83.816696 
	C94.616379,83.599419 91.239029,82.987244 87.847694,82.896317 
	C86.407463,82.857697 84.937943,83.911720 83.277451,84.733635 
	C80.467957,75.587708 76.939278,66.265594 80.712280,56.294655 
	C80.980743,57.868275 80.783058,59.428993 80.775162,60.990673 
	C80.769073,62.194077 80.612953,63.651981 81.201515,64.554680 
	C82.882408,67.132721 84.909096,69.485291 86.799759,71.926559 
z"/>
<path fill="#5D53DE" opacity="1.000000" stroke="none" 
	d="
M73.351685,111.933990 
	C75.734848,107.707977 78.474251,103.467133 81.473053,98.986252 
	C81.283363,101.284233 80.834290,103.822243 80.190109,106.679291 
	C77.899323,108.638603 75.803627,110.278885 73.351685,111.933990 
z"/>
<path fill="#6254E1" opacity="1.000000" stroke="none" 
	d="
M81.807030,98.622841 
	C81.744843,97.523476 82.031525,96.414047 82.621719,95.132446 
	C82.668785,96.177773 82.412338,97.395271 81.807030,98.622841 
z"/>
<path fill="#715CE1" opacity="1.000000" stroke="none" 
	d="
M114.209961,69.847427 
	C114.736038,64.791733 115.578331,59.628895 116.548386,53.986969 
	C117.115005,57.034111 117.553879,60.560345 117.991028,64.541611 
	C116.834930,66.577850 115.680557,68.159073 114.209961,69.847427 
z"/>
<path fill="#715CE1" opacity="1.000000" stroke="none" 
	d="
M113.038452,71.776428 
	C113.033554,71.418884 113.240158,70.843834 113.700546,70.088089 
	C113.719543,70.457901 113.484749,71.008408 113.038452,71.776428 
z"/>
<path fill="#715CE1" opacity="1.000000" stroke="none" 
	d="
M112.086472,72.825577 
	C112.058479,72.659996 112.233727,72.324326 112.694336,71.921432 
	C112.749695,72.121307 112.519707,72.388397 112.086472,72.825577 
z"/>
<path fill="#5D53DE" opacity="1.000000" stroke="none" 
	d="
M72.090157,112.826523 
	C72.076012,112.684875 72.253708,112.394974 72.692657,112.043777 
	C72.758255,112.241753 72.534279,112.473686 72.090157,112.826523 
z"/>
<path fill="#8261F1" opacity="1.000000" stroke="none" 
	d="
M116.805649,53.289276 
	C116.639351,53.273743 116.321342,52.983971 115.959061,52.349228 
	C116.161163,52.341183 116.407547,52.678116 116.805649,53.289276 
z"/>
<path fill="#6558DC" opacity="1.000000" stroke="none" 
	d="
M73.008255,46.286728 
	C73.037300,46.697258 72.837212,47.374790 72.354218,48.289719 
	C72.307251,47.869324 72.543190,47.211529 73.008255,46.286728 
z"/>
<path fill="#6558DC" opacity="1.000000" stroke="none" 
	d="
M73.719917,45.202469 
	C73.801849,45.378998 73.731735,45.740047 73.382248,46.161324 
	C73.232368,45.929153 73.387367,45.650967 73.719917,45.202469 
z"/>
<path fill="#564FDE" opacity="1.000000" stroke="none" 
	d="
M44.000763,115.999977 
	C43.026085,115.230553 42.051407,114.461121 41.038132,113.345383 
	C41.832806,112.632103 42.666073,112.265121 43.839539,111.828972 
	C44.179733,111.759804 44.142227,111.780884 44.119595,112.202728 
	C44.064896,113.749710 44.032829,114.874847 44.000763,115.999977 
z"/>
<path fill="#5C53DD" opacity="1.000000" stroke="none" 
	d="
M35.216759,97.616592 
	C35.380875,97.653465 35.631500,97.969902 35.863953,98.605698 
	C35.664940,98.582100 35.484104,98.239128 35.216759,97.616592 
z"/>
<path fill="#5750DB" opacity="1.000000" stroke="none" 
	d="
M44.185860,116.147408 
	C44.032829,114.874847 44.064896,113.749710 44.140793,112.203239 
	C46.924637,113.127129 49.664658,114.472351 52.978680,116.138199 
	C53.923420,116.595955 54.294155,116.733093 54.664886,116.870232 
	C56.211163,116.788383 57.757442,116.706535 59.689129,116.727684 
	C58.974720,117.500725 57.874897,118.170761 56.944530,118.737564 
	C57.654552,121.322937 58.325840,123.767273 58.998489,126.605194 
	C56.782177,127.496971 54.564510,127.995163 51.926891,128.587692 
	C52.057301,127.034950 52.180695,125.565735 52.276070,124.430099 
	C48.442463,123.245544 44.869236,122.141441 41.296009,121.037338 
	C41.289230,120.448402 41.282448,119.859467 41.275669,119.270531 
	C42.278732,118.853500 43.281796,118.436470 44.762867,118.335464 
	C46.730080,119.282936 48.213028,119.931877 49.733646,120.475456 
	C49.788700,120.495125 50.214279,119.478279 50.467178,118.944489 
	C48.967564,118.298492 47.474991,117.635094 45.961937,117.022255 
	C45.683899,116.909637 45.322773,117.002159 45.000000,117.000000 
	C44.816956,116.741188 44.607273,116.506134 44.185860,116.147408 
z"/>
<path fill="#795CEC" opacity="1.000000" stroke="none" 
	d="
M97.022316,35.076538 
	C93.928055,35.621685 90.482048,35.931889 86.639877,36.279243 
	C87.571159,35.544018 88.898605,34.771637 90.614090,33.993572 
	C92.891617,34.272457 94.781090,34.557026 97.022316,35.076538 
z"/>
<path fill="#5750DB" opacity="1.000000" stroke="none" 
	d="
M35.915497,87.093109 
	C36.009644,86.992912 36.025906,87.489792 35.930679,87.718689 
	C35.669067,87.694382 35.664368,87.442955 35.915497,87.093109 
z"/>
<path fill="#5C53DD" opacity="1.000000" stroke="none" 
	d="
M44.033775,74.242981 
	C44.039833,74.388779 43.820133,74.696068 43.334209,75.115776 
	C43.314663,74.953621 43.561340,74.679047 44.033775,74.242981 
z"/>
<path fill="#564FDE" opacity="1.000000" stroke="none" 
	d="
M44.999985,117.250076 
	C45.322773,117.002159 45.683899,116.909637 45.961937,117.022255 
	C47.474991,117.635094 48.967564,118.298492 50.467178,118.944489 
	C50.214279,119.478279 49.788700,120.495125 49.733646,120.475456 
	C48.213028,119.931877 46.730080,119.282936 45.120361,118.325897 
	C44.999886,117.833588 44.999924,117.666870 44.999985,117.250076 
z"/>
<path fill="#795FE8" opacity="1.000000" stroke="none" 
	d="
M86.935570,71.612396 
	C84.909096,69.485291 82.882408,67.132721 81.201515,64.554680 
	C80.612953,63.651981 80.769073,62.194077 80.775162,60.990673 
	C80.783058,59.428993 80.980743,57.868275 80.939194,55.961922 
	C80.781647,55.616707 80.771530,55.277081 80.982468,55.051445 
	C81.365303,54.586796 81.388252,54.330017 81.262253,54.055466 
	C84.468117,47.669888 89.465683,44.822163 95.584099,45.894573 
	C101.204292,46.879654 105.543083,51.441719 106.164810,57.019756 
	C106.825317,62.945721 103.674767,68.803009 98.052086,70.434471 
	C94.599014,71.436386 90.745232,71.057236 86.935570,71.612396 
z"/>
<path fill="#715CE1" opacity="1.000000" stroke="none" 
	d="
M81.139999,54.282211 
	C81.388252,54.330017 81.365303,54.586796 81.095703,54.924797 
	C81.004578,54.852177 81.011162,54.680569 81.139999,54.282211 
z"/>
<path fill="#5D53DE" opacity="1.000000" stroke="none" 
	d="
M54.491676,116.593346 
	C54.294155,116.733093 53.923420,116.595955 53.301243,116.302170 
	C53.472691,116.202499 53.895580,116.259476 54.491676,116.593346 
z"/>
</svg>